<svg width="24" height="24" viewBox="0 0 24 24" fill="none" xmlns="http://www.w3.org/2000/svg">
<path d="M5 21H19C20.103 21 21 20.103 21 19V5C21 3.897 20.103 3 19 3H5C3.897 3 3 3.897 3 5V19C3 20.103 3.897 21 5 21ZM5 5H19L19.001 19H5V5Z" fill="black"/>
<path d="M9.37001 15V14.32L12.22 11.57C12.4733 11.33 12.66 11.12 12.78 10.94C12.9067 10.7534 12.99 10.5834 13.03 10.43C13.0767 10.27 13.1 10.1167 13.1 9.97004C13.1 9.61004 12.9733 9.32671 12.72 9.12004C12.4667 8.91338 12.0967 8.81004 11.61 8.81004C11.2367 8.81004 10.9 8.87338 10.6 9.00004C10.3 9.12004 10.04 9.31004 9.82001 9.57004L9.14001 8.98004C9.40668 8.64004 9.76335 8.38004 10.21 8.20004C10.6633 8.01338 11.16 7.92004 11.7 7.92004C12.1867 7.92004 12.61 8.00004 12.97 8.16004C13.33 8.31338 13.6067 8.53671 13.8 8.83004C14 9.12338 14.1 9.47004 14.1 9.87004C14.1 10.0967 14.07 10.32 14.01 10.54C13.95 10.76 13.8367 10.9934 13.67 11.24C13.5033 11.4867 13.2633 11.7634 12.95 12.07L10.41 14.52L10.17 14.13H14.4V15H9.37001Z" fill="black"/>
</svg>
