<svg width="24" height="24" viewBox="0 0 24 24" fill="none" xmlns="http://www.w3.org/2000/svg">
<path d="M5 21H19C20.103 21 21 20.103 21 19V5C21 3.897 20.103 3 19 3H5C3.897 3 3 3.897 3 5V19C3 20.103 3.897 21 5 21ZM5 5H19L19.001 19H5V5Z" fill="black"/>
<path d="M11.61 16.06C11.1034 16.06 10.6234 15.98 10.17 15.82C9.72336 15.6533 9.36336 15.4333 9.09003 15.16L9.44003 14.59C9.66669 14.8233 9.97003 15.0167 10.35 15.17C10.7367 15.3233 11.1567 15.4 11.61 15.4C12.19 15.4 12.6334 15.2733 12.94 15.02C13.2534 14.7667 13.41 14.4267 13.41 14C13.41 13.5733 13.2567 13.2333 12.95 12.98C12.65 12.7267 12.1734 12.6 11.52 12.6H11.02V12.07L13.18 9.36L13.28 9.64H9.38003V9H13.88V9.51L11.72 12.22L11.37 11.99H11.64C12.48 11.99 13.1067 12.1767 13.52 12.55C13.94 12.9233 14.15 13.4033 14.15 13.99C14.15 14.3833 14.0567 14.7367 13.87 15.05C13.6834 15.3633 13.4 15.61 13.02 15.79C12.6467 15.97 12.1767 16.06 11.61 16.06Z" fill="black"/>
</svg>
